<svg xmlns="http://www.w3.org/2000/svg" width="880" height="420" viewBox="0 0 880 420">
<rect width="880" height="420" fill="#ffffff"/>
<text x="32" y="38" font-family="Microsoft YaHei, Segoe UI, Arial, sans-serif" font-size="22" font-weight="700" fill="#263238">收入质量分层结构</text>
<text x="32" y="64" font-family="Microsoft YaHei, Segoe UI, Arial, sans-serif" font-size="13" fill="#667085">收入质量分层占比结构</text>
<path d="M 260.00 110.00 A 120 120 0 1 1 171.48 311.02 L 209.84 275.91 A 68 68 0 1 0 260.00 162.00 Z" fill="#486581"/>
<path d="M 171.48 311.02 A 120 120 0 0 1 202.60 124.62 L 227.47 170.28 A 68 68 0 0 0 209.84 275.91 Z" fill="#2f5f8f"/>
<path d="M 202.60 124.62 A 120 120 0 0 1 260.00 110.00 L 260.00 162.00 A 68 68 0 0 0 227.47 170.28 Z" fill="#7da0bd"/>
<text x="260" y="226" text-anchor="middle" font-family="Microsoft YaHei, Segoe UI, Arial, sans-serif" font-size="21" font-weight="700" fill="#263238">793.7万</text>
<text x="260" y="252" text-anchor="middle" font-family="Microsoft YaHei, Segoe UI, Arial, sans-serif" font-size="12" fill="#667085">合计</text>
<rect x="470" y="113" width="14" height="14" rx="3" fill="#486581"/>
<text x="494" y="126" font-family="Microsoft YaHei, Segoe UI, Arial, sans-serif" font-size="14" fill="#263238">可疑增长收入</text>
<text x="760" y="126" text-anchor="end" font-family="Microsoft YaHei, Segoe UI, Arial, sans-serif" font-size="13" fill="#667085">63.20%</text>
<rect x="470" y="155" width="14" height="14" rx="3" fill="#2f5f8f"/>
<text x="494" y="168" font-family="Microsoft YaHei, Segoe UI, Arial, sans-serif" font-size="14" fill="#263238">稳定基础收入</text>
<text x="760" y="168" text-anchor="end" font-family="Microsoft YaHei, Segoe UI, Arial, sans-serif" font-size="13" fill="#667085">28.86%</text>
<rect x="470" y="197" width="14" height="14" rx="3" fill="#7da0bd"/>
<text x="494" y="210" font-family="Microsoft YaHei, Segoe UI, Arial, sans-serif" font-size="14" fill="#263238">交易型收入</text>
<text x="760" y="210" text-anchor="end" font-family="Microsoft YaHei, Segoe UI, Arial, sans-serif" font-size="13" fill="#667085">7.94%</text>
</svg>